<?xml version="1.0" encoding="UTF-8"?>
<svg width="115px" height="115px" viewBox="0 0 115 115" version="1.1" xmlns="http://www.w3.org/2000/svg" xmlns:xlink="http://www.w3.org/1999/xlink">
    <!-- Generator: Sketch 51.3 (57544) - http://www.bohemiancoding.com/sketch -->
    <title>Group 2</title>
    <desc>Created with Sketch.</desc>
    <defs>
        <path d="M27.9939207,25.6841396 C39.6626138,21.2280465 51.3313069,19 63,19 C74.668701,19 86.3374021,21.2280496 98.0061031,25.6841487 L98.0060992,25.684159 C99.0696312,26.0903056 99.909714,26.9303886 100.31586,27.9939207 C104.771953,39.6626138 107,51.3313069 107,63 C107,74.668701 104.77195,86.3374021 100.315851,98.0061031 L100.315841,98.0060992 C99.9096944,99.0696312 99.0696114,99.909714 98.0060793,100.31586 C86.3373862,104.771953 74.6686931,107 63,107 C51.331299,107 39.6625979,104.77195 27.9938969,100.315851 L27.9939008,100.315841 C26.9303688,99.9096944 26.090286,99.0696114 25.6841396,98.0060793 C21.2280465,86.3373862 19,74.6686931 19,63 C19,51.331299 21.2280496,39.6625979 25.6841487,27.9938969 L25.684159,27.9939008 C26.0903056,26.9303688 26.9303886,26.090286 27.9939207,25.6841396 Z" id="path-1"></path>
        <filter x="-8.5%" y="-9.7%" width="123.9%" height="123.9%" filterUnits="objectBoundingBox" id="filter-2">
            <feOffset dx="3" dy="2" in="SourceAlpha" result="shadowOffsetOuter1"></feOffset>
            <feGaussianBlur stdDeviation="3" in="shadowOffsetOuter1" result="shadowBlurOuter1"></feGaussianBlur>
            <feColorMatrix values="0 0 0 0 0.857910232   0 0 0 0 0.900841431   0 0 0 0 0.949139031  0 0 0 1 0" type="matrix" in="shadowBlurOuter1"></feColorMatrix>
        </filter>
        <filter x="-6.2%" y="-7.4%" width="119.3%" height="119.3%" filterUnits="objectBoundingBox" id="filter-3">
            <feGaussianBlur stdDeviation="1.5" in="SourceAlpha" result="shadowBlurInner1"></feGaussianBlur>
            <feOffset dx="2" dy="2" in="shadowBlurInner1" result="shadowOffsetInner1"></feOffset>
            <feComposite in="shadowOffsetInner1" in2="SourceAlpha" operator="arithmetic" k2="-1" k3="1" result="shadowInnerInner1"></feComposite>
            <feColorMatrix values="0 0 0 0 0.888277304   0 0 0 0 0.940852691   0 0 0 0 1  0 0 0 1 0" type="matrix" in="shadowInnerInner1" result="shadowMatrixInner1"></feColorMatrix>
            <feGaussianBlur stdDeviation="1.5" in="SourceAlpha" result="shadowBlurInner2"></feGaussianBlur>
            <feOffset dx="-2" dy="-2" in="shadowBlurInner2" result="shadowOffsetInner2"></feOffset>
            <feComposite in="shadowOffsetInner2" in2="SourceAlpha" operator="arithmetic" k2="-1" k3="1" result="shadowInnerInner2"></feComposite>
            <feColorMatrix values="0 0 0 0 0.768147376   0 0 0 0 0.863786606   0 0 0 0 0.97138074  0 0 0 1 0" type="matrix" in="shadowInnerInner2" result="shadowMatrixInner2"></feColorMatrix>
            <feMerge>
                <feMergeNode in="shadowMatrixInner1"></feMergeNode>
                <feMergeNode in="shadowMatrixInner2"></feMergeNode>
            </feMerge>
        </filter>
    </defs>
    <g id="Page-1" stroke="none" stroke-width="1" fill="none" fill-rule="evenodd">
        <g id="引导页2" transform="translate(-558.000000, -911.000000)" fill-rule="nonzero">
            <g id="Group-2" transform="translate(552.000000, 902.000000)">
                <g id="Rectangle-21" transform="translate(63.000000, 63.000000) rotate(-315.000000) translate(-63.000000, -63.000000) ">
                    <use fill="black" fill-opacity="1" filter="url(#filter-2)" xlink:href="#path-1"></use>
                    <use fill="#EEF6FF" xlink:href="#path-1"></use>
                    <use fill="black" fill-opacity="1" filter="url(#filter-3)" xlink:href="#path-1"></use>
                </g>
            </g>
        </g>
    </g>
</svg>