<?xml version="1.0" encoding="UTF-8"?>
<svg width="19px" height="24px" viewBox="0 0 19 24" version="1.1" xmlns="http://www.w3.org/2000/svg" xmlns:xlink="http://www.w3.org/1999/xlink">
    <!-- Generator: Sketch 52.1 (67048) - http://www.bohemiancoding.com/sketch -->
    <title>icon_hot2</title>
    <desc>Created with Sketch.</desc>
    <defs>
        <polygon id="path-1" points="0.00173111601 0.0260005976 18.5710542 0.0260005976 18.5710542 23.6585566 0.00173111601 23.6585566"></polygon>
        <linearGradient x1="2.21504697%" y1="2.21504697%" x2="100%" y2="100%" id="linearGradient-3">
            <stop stop-color="#FABF7A" offset="0%"></stop>
            <stop stop-color="#F37291" offset="100%"></stop>
        </linearGradient>
    </defs>
    <g id="icon_hot2" stroke="none" stroke-width="1" fill="none" fill-rule="evenodd">
        <g id="hot-7-copy">
            <mask id="mask-2" fill="white">
                <use xlink:href="#path-1"></use>
            </mask>
            <g id="Clip-2"></g>
            <path d="M9.38172551,23.6585566 C12.565796,23.6585566 15.3446123,22.0884921 16.845461,19.9697792 C18.3463386,17.8492775 18.8005257,15.7322669 18.4679495,12.6722597 C18.13445,9.61239671 16.4462657,6.12018754 16.1972158,6.41398678 C16.1060148,6.52117171 16.0005322,7.51217792 15.5235808,8.14859387 C15.0466295,8.78515408 14.4026255,9.17252014 14.1813889,9.03330956 C13.9594887,8.89482028 13.9729048,6.35235905 11.9284857,3.78453697 C10.1651132,1.56957403 7.24950992,-0.157589261 6.9261663,0.0416621919 C6.55986215,0.26786135 7.82686596,0.973608495 4.79729754,4.94851052 C1.76853697,8.9243358 0.954018032,10.1651998 0.29561691,12.6722597 C-1.21290643,18.4182088 3.23987017,23.6585566 9.38172551,23.6585566 Z M9.00699659,20.1217135 C7.19212342,20.1689152 6.1479431,18.9095861 6.00527029,17.2559086 C5.91406932,16.1914165 6.24667441,14.9488792 7.19122901,13.3957219 C8.01509597,12.0409217 9.87806532,10.7096646 9.98525025,10.9848832 C10.1119391,11.3116025 9.62235063,12.5363382 10.2047846,13.8388587 C10.7872474,15.1421583 11.2523695,14.9834727 11.732581,16.3374939 C12.2542817,17.8045282 11.6237227,18.7828972 11.2388379,19.2395945 C10.8530587,19.6962629 10.186983,20.0895724 9.00699659,20.1207902 L9.00699659,20.1217135 Z" id="Fill-1" fill="url(#linearGradient-3)" mask="url(#mask-2)"></path>
        </g>
    </g>
</svg>