<?xml version="1.0" encoding="UTF-8"?>
<svg width="98px" height="98px" viewBox="0 0 98 98" version="1.1" xmlns="http://www.w3.org/2000/svg" xmlns:xlink="http://www.w3.org/1999/xlink">
    <!-- Generator: Sketch 52.1 (67048) - http://www.bohemiancoding.com/sketch -->
    <title>icon_dengpao</title>
    <desc>Created with Sketch.</desc>
    <g id="0222" stroke="none" stroke-width="1" fill="none" fill-rule="evenodd">
        <g id="首页-copy" transform="translate(-53.000000, -1948.000000)" fill="#909399">
            <g id="分组-19" transform="translate(0.000000, 1839.000000)">
                <g id="分组-17" transform="translate(40.000000, 110.000000)">
                    <g id="icon_dengpao" transform="translate(14.000000, 0.000000)">
                        <path d="M56.9584158,77.1848515 L39.0125743,77.1848515 C37.9121782,77.1848515 37.0230693,78.0736634 37.0230693,79.1708911 C37.0230693,80.2665347 37.9121782,81.1588119 39.0125743,81.1588119 L56.9584158,81.1588119 C58.0541584,81.1588119 58.9448515,80.2665347 58.9448515,79.1708911 C58.9448515,78.0736634 58.0541584,77.1848515 56.9584158,77.1848515 M52.4175248,85.0159406 L43.5534653,85.0159406 C42.4577228,85.0159406 41.5690099,85.9066337 41.5690099,87.0022772 C41.5690099,88.0980198 42.4577228,88.990198 43.5534653,88.990198 L52.4175248,88.990198 C53.5132673,88.990198 54.4019802,88.0980198 54.4019802,87.0022772 C54.4019802,85.9066337 53.5132673,85.0159406 52.4175248,85.0159406 M47.9775248,21.1781188 C34.7876238,21.1781188 24.0937624,31.6715842 24.0937624,44.6217822 C24.0937624,50.760396 25.9818812,55.0991089 28.5368317,58.2348515 C32.9277228,62.9827723 37.3831683,65.0681188 38.1411881,73.2043564 L57.8093069,73.2043564 C58.570099,65.0681188 63.0227723,62.9827723 67.4357426,58.2348515 C70.4040594,54.7343564 71.8757426,50.760396 71.8757426,44.6217822 C71.8757426,31.6715842 61.1660396,21.1781188 47.9775248,21.1781188 M64.4611881,55.599505 C63.5975248,56.5250495 62.6960396,57.369703 61.8262376,58.1907921 C58.8671287,60.9742574 55.8213861,63.8367327 54.460396,69.230396 L50.0915842,69.230396 L50.0915842,53.1822772 L56.2843564,46.9663366 C57.0594059,46.1908911 57.0563366,44.9327723 56.2808911,44.1573267 C55.5042574,43.3806931 54.2473267,43.3837624 53.4706931,44.1638614 L47.9872277,49.6694059 L42.4988119,44.1638614 C41.7236634,43.3837624 40.4651485,43.3806931 39.690099,44.1573267 C38.9131683,44.9327723 38.91,46.1908911 39.6819802,46.9663366 L46.1207921,53.4271287 L46.1207921,69.230396 L41.4931683,69.230396 C40.1352475,63.8494059 37.1054455,60.9916832 34.1560396,58.209802 C33.2939604,57.3948515 32.3970297,56.5516832 31.5415842,55.6327723 C29.2031683,52.7166337 28.0677228,49.1135644 28.0677228,44.6217822 C28.0677228,33.8865347 36.999505,25.1539604 47.9775248,25.1539604 C58.9622772,25.1539604 67.9017822,33.8865347 67.9017822,44.6217822 C67.9013861,49.4988119 66.9070297,52.6864356 64.4611881,55.599505 M47.8827723,17.0714851 C48.98,17.0714851 49.8692079,16.1827723 49.8692079,15.0867327 L49.8692079,9.99039604 C49.8692079,8.89435644 48.98,8.00554455 47.8827723,8.00554455 C46.7871287,8.00554455 45.8983168,8.89435644 45.8983168,9.99039604 L45.8983168,15.0870297 C45.8983168,16.1827723 46.7871287,17.0714851 47.8827723,17.0714851 M77.3858416,20.5860396 C76.6107921,19.8140594 75.3492079,19.8171287 74.5756436,20.5925743 L70.4531683,24.7323762 C69.6811881,25.5075248 69.6843564,26.7659406 70.459802,27.5410891 C70.8314851,27.9115842 71.3350495,28.12 71.859802,28.120396 C72.3893069,28.120396 72.8963366,27.909604 73.27,27.5348515 L77.3923762,23.3965347 C78.1659406,22.6180198 78.1659406,21.359901 77.3858416,20.5860396 M25.510099,27.5410891 C26.2866337,26.7675248 26.289802,25.5105941 25.5131683,24.7308911 L21.3937624,20.5909901 C20.6217822,19.8155446 19.360198,19.8124752 18.5832673,20.5875248 C17.8081188,21.3614851 17.8050495,22.619604 18.5770297,23.3950495 L22.7009901,27.5348515 C23.0878218,27.9247525 23.599505,28.1189109 24.1065347,28.1189109 C24.6320792,28.1192079 25.1368317,27.9115842 25.510099,27.5410891" id="Fill-1"></path>
                    </g>
                </g>
            </g>
        </g>
    </g>
</svg>