<?xml version="1.0" encoding="UTF-8"?>
<svg width="98px" height="98px" viewBox="0 0 98 98" version="1.1" xmlns="http://www.w3.org/2000/svg" xmlns:xlink="http://www.w3.org/1999/xlink">
    <!-- Generator: Sketch 52.1 (67048) - http://www.bohemiancoding.com/sketch -->
    <title>icon_shengwu</title>
    <desc>Created with Sketch.</desc>
    <g id="0222" stroke="none" stroke-width="1" fill="none" fill-rule="evenodd">
        <g id="首页-copy" transform="translate(-52.000000, -2194.000000)" fill="#909399">
            <g id="分组-19" transform="translate(0.000000, 1839.000000)">
                <g id="分组-17" transform="translate(40.000000, 110.000000)">
                    <g id="icon_shengwu" transform="translate(13.000000, 246.000000)">
                        <path d="M22.5905645,52.4617742 C21.7649194,51.636371 20.4443548,51.636371 19.6190323,52.4617742 C18.793629,53.2870968 18.793629,54.6079839 19.6190323,55.4333065 L35.0042742,70.818629 C35.4005645,71.2149194 35.9619355,71.4127419 36.4902419,71.4127419 C37.0182258,71.4127419 37.5465323,71.2149194 37.9758871,70.818629 C38.8012097,69.9932258 38.8012097,68.6726613 37.9758871,67.8470161 L22.5905645,52.4617742 Z M72.4441129,23.1437903 C72.8404032,23.5400806 73.4017742,23.7382258 73.9300806,23.7382258 C74.4583871,23.7382258 74.9862903,23.5400806 75.4157258,23.1437903 C76.2410484,22.3183871 76.2410484,20.9978226 75.4157258,20.1725 L69.935,14.6917742 C69.1095968,13.8664516 67.7890323,13.8664516 66.9637097,14.6917742 C66.1383871,15.5170968 66.1383871,16.8377419 66.9637097,17.6633871 C66.9637097,17.6303226 72.4441129,23.1437903 72.4441129,23.1437903 Z" id="Fill-1"></path>
                        <path d="M76.9344355,75.87 L68.2181452,75.87 C68.6144355,75.5067742 69.0107258,75.1766129 69.4066935,74.7806452 C72.8404032,71.3469355 74.6892742,66.823871 74.6892742,62.0033871 C74.6892742,57.2821774 72.8734677,52.825 69.6379032,49.4574194 C67.9871774,47.7405645 66.0060484,46.3869355 63.8932258,45.4626613 C63.8270161,44.6369355 63.596129,43.8446774 63.2329032,43.0854839 L71.8830645,34.4353226 C73.8970161,32.421129 73.8970161,29.1528226 71.8830645,27.1716129 L63.0678226,18.3564516 C61.0539516,16.3425 57.7853226,16.3425 55.8044355,18.3564516 L27.9720968,46.1556452 C25.9581452,48.1699194 25.9581452,51.4382258 27.9720968,53.4194355 L36.7872581,62.2345968 C37.7777419,63.2250806 39.0983065,63.7533065 40.418871,63.7533065 C41.7397581,63.7533065 43.0603226,63.2581452 44.0507258,62.2345968 L54.1864516,52.0985484 C55.1110484,52.5609677 56.1015323,52.7919355 57.125,52.7919355 C59.5352419,52.7919355 61.681129,51.5044355 62.8696774,49.5894355 C67.3927419,51.8676613 70.496371,56.588871 70.496371,62.0033871 C70.496371,69.4318548 64.6524194,75.5067742 57.3558871,75.87 L43.126129,75.87 C41.9706452,75.87 41.046371,76.8273387 41.046371,77.9831452 C41.046371,79.138629 42.0037097,80.0959677 43.126129,80.0959677 L56.3324194,80.0959677 C56.4316129,80.0959677 56.5305645,80.1290323 56.5966935,80.1290323 C56.8607258,80.1290323 57.1580645,80.0959677 57.4220968,80.0959677 L76.901371,80.0959677 C78.0568548,80.0959677 78.9814516,79.138629 78.9814516,77.9831452 C79.0472581,76.7945161 78.0568548,75.87 76.9344355,75.87 Z M57.1580645,48.5989516 C55.7383065,48.5989516 54.5828226,47.4434677 54.5828226,46.0237097 C54.5828226,44.6041935 55.7383065,43.4483871 57.1580645,43.4483871 C58.5775806,43.4483871 59.7330645,44.6041935 59.7330645,46.0237097 C59.7330645,47.4434677 58.5775806,48.5989516 57.1580645,48.5989516 Z M60.3275,40.0477419 C59.3701613,39.5197581 58.2474194,39.2554839 57.1580645,39.2554839 C53.4272581,39.2554839 50.3898387,42.2929032 50.3898387,46.0237097 C50.3898387,47.1464516 50.653871,48.2026613 51.1821774,49.1933871 L41.1121774,59.2630645 C40.7490323,59.6262903 40.1548387,59.6262903 39.7585484,59.2630645 L30.9433871,50.4478226 C30.5801613,50.0845968 30.5801613,49.4904839 30.9433871,49.0941935 L58.7757258,21.2618548 C59.1389516,20.898629 59.7330645,20.898629 60.1293548,21.2618548 L68.9445161,30.0770161 C69.3077419,30.4402419 69.3077419,31.0346774 68.9445161,31.4307258 L60.3275,40.0477419 Z" id="Fill-3"></path>
                    </g>
                </g>
            </g>
        </g>
    </g>
</svg>