<?xml version="1.0" encoding="UTF-8"?>
<svg width="26px" height="26px" viewBox="0 0 26 26" version="1.1" xmlns="http://www.w3.org/2000/svg" xmlns:xlink="http://www.w3.org/1999/xlink">
    <!-- Generator: Sketch 52.1 (67048) - http://www.bohemiancoding.com/sketch -->
    <title>icon_hot</title>
    <desc>Created with Sketch.</desc>
    <defs>
        <linearGradient x1="2.21504697%" y1="2.21504697%" x2="100%" y2="100%" id="linearGradient-1">
            <stop stop-color="#FABF7A" offset="0%"></stop>
            <stop stop-color="#F37291" offset="100%"></stop>
        </linearGradient>
    </defs>
    <g id="0222" stroke="none" stroke-width="1" fill="none" fill-rule="evenodd">
        <g id="首页-copy" transform="translate(-276.000000, -437.000000)" fill="url(#linearGradient-1)">
            <g id="icon_hot" transform="translate(277.000000, 438.000000)">
                <path d="M12.3817125,23.632556 C15.565783,23.632556 18.3445992,22.0624915 19.845448,19.9437786 C21.3463256,17.8232769 21.8005127,15.7062663 21.4679365,12.6462591 C21.134437,9.58639612 19.4462526,6.09418694 19.1972027,6.38798618 C19.1060018,6.49517111 19.0005191,7.48617732 18.5235678,8.12259327 C18.0466165,8.75915348 17.4026125,9.14651954 17.1813758,9.00730896 C16.9594756,8.86881968 16.9728918,6.32635845 14.9284726,3.75853637 C13.1651001,1.54357344 10.2494969,-0.183589858 9.92615325,0.0156615944 C9.5598491,0.241860753 10.8268529,0.947607898 7.79728448,4.92250992 C4.76852391,8.89833521 3.95400498,10.1391992 3.29560386,12.6462591 C1.78708051,18.3922082 6.23985711,23.632556 12.3817125,23.632556 Z M12.0069835,20.0957129 C10.1921104,20.1429146 9.14793004,18.8835855 9.00525723,17.229908 C8.91405627,16.165416 9.24666136,14.9228786 10.191216,13.3697213 C11.0150829,12.0149211 12.8780523,10.683664 12.9852372,10.9588826 C13.111926,11.2856019 12.6223376,12.5103376 13.2047716,13.8128581 C13.7872344,15.1161577 14.2523564,14.9574721 14.732568,16.3114933 C15.2542687,17.7785276 14.6237096,18.7568966 14.2388249,19.2135939 C13.8530457,19.6702623 13.1869699,20.0635718 12.0069835,20.0947896 L12.0069835,20.0957129 Z" id="Fill-1"></path>
            </g>
        </g>
    </g>
</svg>