<?xml version="1.0" encoding="UTF-8"?>
<svg width="140px" height="140px" viewBox="0 0 140 140" version="1.1" xmlns="http://www.w3.org/2000/svg" xmlns:xlink="http://www.w3.org/1999/xlink">
    <!-- Generator: Sketch 52.1 (67048) - http://www.bohemiancoding.com/sketch -->
    <title>icon_popbutton</title>
    <desc>Created with Sketch.</desc>
    <defs>
        <circle id="path-1" cx="70" cy="70" r="55"></circle>
        <filter x="-12.7%" y="-9.1%" width="125.5%" height="125.5%" filterUnits="objectBoundingBox" id="filter-2">
            <feOffset dx="0" dy="4" in="SourceAlpha" result="shadowOffsetOuter1"></feOffset>
            <feGaussianBlur stdDeviation="4" in="shadowOffsetOuter1" result="shadowBlurOuter1"></feGaussianBlur>
            <feColorMatrix values="0 0 0 0 0   0 0 0 0 0.180392157   0 0 0 0 1  0 0 0 0.4 0" type="matrix" in="shadowBlurOuter1"></feColorMatrix>
        </filter>
        <polygon id="path-3" points="0.00352709131 0.0506725452 45.9676993 0.0506725452 45.9676993 43.7359239 0.00352709131 43.7359239"></polygon>
    </defs>
    <g id="0222" stroke="none" stroke-width="1" fill="none" fill-rule="evenodd">
        <g id="首页-copy" transform="translate(-585.000000, -1165.000000)">
            <g id="icon_popbutton" transform="translate(585.000000, 1165.000000)">
                <g id="椭圆形" fill-rule="nonzero">
                    <use fill="black" fill-opacity="1" filter="url(#filter-2)" xlink:href="#path-1"></use>
                    <use fill="#1880FE" xlink:href="#path-1"></use>
                </g>
                <g id="icon_duihuax" transform="translate(47.000000, 48.000000)">
                    <path d="M13.9173145,15.6721012 C15.7830282,15.6721012 16.7157675,16.6048405 16.7157675,18.4705542 C16.7157675,20.3362679 15.7830282,21.269066 13.9173145,21.269066 C12.0516007,21.269066 11.1186263,20.3362679 11.1186263,18.4705542 C11.1186263,16.6048405 12.0516007,15.6721012 13.9173145,15.6721012 Z" id="Fill-1" fill="#FFFFFF"></path>
                    <path d="M22.872129,15.6721012 C24.7378428,15.6721012 25.6708172,16.6048405 25.6708172,18.4705542 C25.6708172,20.3362679 24.7378428,21.269066 22.872129,21.269066 C21.0064153,21.269066 20.073676,20.3362679 20.073676,18.4705542 C20.073676,16.6048405 21.0064153,15.6721012 22.872129,15.6721012 Z" id="Fill-2" fill="#FFFFFF"></path>
                    <g id="分组">
                        <mask id="mask-4" fill="white">
                            <use xlink:href="#path-3"></use>
                        </mask>
                        <g id="Clip-4"></g>
                        <path d="M31.8271787,15.6721012 C33.6928924,15.6721012 34.6256317,16.6048405 34.6256317,18.4705542 C34.6256317,20.3362679 33.6928924,21.269066 31.8271787,21.269066 C29.961465,21.269066 29.0284905,20.3362679 29.0284905,18.4705542 C29.0284905,16.6048405 29.961465,15.6721012 31.8271787,15.6721012 Z" id="Fill-3" fill="#FFFFFF" mask="url(#mask-4)"></path>
                        <path d="M9.63360328,33.1233848 L42.6842124,33.1233848 L42.6842124,3.33415942 L3.28342809,3.33415942 L3.28342809,38.1283273 L9.63360328,33.1233848 Z M2.18903044,0.0506725452 L43.7786688,0.0506725452 C44.9876382,0.0506725452 45.9676993,1.03073365 45.9676993,2.23976177 L45.9676993,34.2177824 C45.9676993,35.4267518 44.9876382,36.4065777 43.7786688,36.4065777 L10.7716193,36.4065777 L1.77206946,43.5009692 C1.44252156,43.7606807 0.993816761,43.8091194 0.616535561,43.6261221 C0.239254361,43.4428897 -0.000235139421,43.0600828 -2.64697796e-23,42.6407704 L-2.64697796e-23,2.23976177 C-2.64697796e-23,1.03073365 0.980061105,0.0506725452 2.18903044,0.0506725452 Z" id="Fill-5" fill="#FFFFFF" mask="url(#mask-4)"></path>
                    </g>
                </g>
            </g>
        </g>
    </g>
</svg>