<?xml version="1.0" encoding="UTF-8"?>
<svg width="250px" height="109px" viewBox="0 0 250 109" version="1.1" xmlns="http://www.w3.org/2000/svg" xmlns:xlink="http://www.w3.org/1999/xlink">
    <!-- Generator: Sketch 52.5 (67469) - http://www.bohemiancoding.com/sketch -->
    <title>分组</title>
    <desc>Created with Sketch.</desc>
    <g id="当前最新版本" stroke="none" stroke-width="1" fill="none" fill-rule="evenodd">
        <g id="首页" transform="translate(-498.000000, -1027.000000)">
            <rect fill="#FFFFFF" x="0" y="0" width="750" height="1334"></rect>
            <g id="分组-2" transform="translate(20.000000, 287.000000)">
                <g id="分组-16" transform="translate(41.000000, 97.000000)">
                    <g id="分组-12"></g>
                </g>
            </g>
            <text id="戳我提问" font-family="PingFangSC-Regular, PingFang SC" font-size="35" font-weight="normal" fill="#FFFFFF">
                <tspan x="476" y="1076">戳我提问</tspan>
            </text>
            <g id="分组-15" transform="translate(24.000000, 1077.000000)"></g>
            <g id="部门" transform="translate(62.000000, 806.000000)"></g>
            <g id="icon_popbutton" transform="translate(585.000000, 1133.000000)"></g>
            <g id="分组" transform="translate(498.000000, 1027.000000)">
                <g id="Group" stroke-width="1" fill-rule="evenodd">
                    <rect id="Rectangle-6" fill="#3C527B" fill-rule="nonzero" x="0" y="0" width="250" height="80" rx="40"></rect>
                    <path d="M159.648783,96.4933604 L159.674574,96.4934588 C160.773174,96.4976497 161.662728,97.387196 161.66693,98.4857958 L161.701504,107.526695 C161.705718,108.628644 160.815828,109.525367 159.713878,109.529581 C159.708798,109.529601 159.703717,109.529601 159.698637,109.529581 L159.672846,109.529483 C158.574246,109.525292 157.684691,108.635746 157.68049,107.537146 L157.645915,98.4962471 C157.641701,97.3942975 158.531591,96.4975746 159.633541,96.4933605 C159.638622,96.4933411 159.643702,96.493341 159.648783,96.4933604 Z" id="Rectangle-2" fill="#FE7563" fill-rule="nonzero" transform="translate(159.673710, 103.011471) rotate(-36.000000) translate(-159.673710, -103.011471) "></path>
                    <path d="M179.649974,91.5998297 L179.675946,91.5997395 C180.779494,91.595909 181.677201,92.4874056 181.681031,93.5909529 C181.681047,93.5955859 181.681047,93.600219 181.681031,93.6048521 L181.632451,107.544648 C181.62862,108.643781 180.738539,109.533851 179.639405,109.537666 L179.613432,109.537756 C178.509885,109.541586 177.612178,108.65009 177.608347,107.546543 C177.608331,107.541909 177.608331,107.537276 177.608348,107.532643 L177.656928,93.5928476 C177.660758,92.4937139 178.55084,91.6036448 179.649974,91.5998297 Z" id="Rectangle-2" fill="#FE7563" fill-rule="nonzero" transform="translate(179.644689, 100.568748) rotate(-330.000000) translate(-179.644689, -100.568748) "></path>
                    <path d="M170.783495,0 L214.927093,0 C213.257567,43.3682404 211.179548,68.7155961 208.693036,76.0420672 C208.296089,77.2116657 207.325037,79.5426911 205.214284,79.4121938 C203.103531,79.2816966 200.617157,73.6182457 200.552163,73.8003201 C199.056344,77.9906905 196.66565,79.2295538 195.275341,78.8903182 C191.619531,78.372175 189.394354,73.7281676 189.258681,74.1012878 C187.641016,78.5500951 185.524759,80.0523032 184.489396,79.9683196 C182.95033,79.8434783 179.01993,74.927181 179.01993,74.1012878 C176.951135,87.3411914 175.072442,97.2059391 170.783495,98.690735 C169.116855,97.1837864 163.975501,90.3494083 167.186056,59.5714182 C153.557058,58.9944832 150.26454,58.6891138 147.177419,55.5511102 C147.177419,51.510616 156.032259,50.4188863 162.311367,44.5 C168.590476,38.5811137 170.522485,31.9195193 170.783495,27.6463508 C171.609097,14.1298462 171.609097,4.91439597 170.783495,0 Z" id="Rectangle-3" fill="#F9BC61" fill-rule="nonzero"></path>
                    <ellipse id="Oval" fill="#FFFFFF" fill-rule="nonzero" cx="182.459677" cy="56" rx="2.01612903" ry="2"></ellipse>
                    <ellipse id="Oval" fill="#FFFFFF" fill-rule="nonzero" cx="183.467742" cy="40" rx="2.01612903" ry="2"></ellipse>
                    <path d="M193.673309,40 C197.705567,42.5 199.721696,45.3333333 199.721696,48.5 C199.721696,51.5480519 197.853775,54.9049334 194.117935,58.5706443 L194.117947,58.5706568 C193.8375,58.8458392 193.460278,59 193.067372,59 L192.161212,59 C191.844825,59 191.588344,58.7435181 191.588344,58.4271317 C191.588344,58.2668921 191.655456,58.1139768 191.773393,58.0054982 C195.520085,54.5591954 197.393454,51.3907131 197.393454,48.5 C197.393454,45.9877042 195.978459,43.6852133 193.148468,41.5925273 L193.148442,41.5925634 C192.756435,41.3026873 192.673642,40.7499123 192.963518,40.3579058 C193.129976,40.1328012 193.393344,40 193.673309,40 Z" id="Rectangle" fill="#FFFFFF" fill-rule="nonzero"></path>
                </g>
                <text id="戳我提问" font-family="PingFangSC-Medium, PingFang SC" font-size="30" font-weight="400" fill="#FFFFFF">
                    <tspan x="23.1854839" y="52">戳我提问</tspan>
                </text>
            </g>
        </g>
    </g>
</svg>