<?xml version="1.0" encoding="UTF-8"?>
<svg width="24px" height="24px" viewBox="0 0 24 24" version="1.1" xmlns="http://www.w3.org/2000/svg" xmlns:xlink="http://www.w3.org/1999/xlink">
    <!-- Generator: Sketch 52.5 (67469) - http://www.bohemiancoding.com/sketch -->
    <title>icon_laba</title>
    <desc>Created with Sketch.</desc>
    <g id="当前最新版本" stroke="none" stroke-width="1" fill="none" fill-rule="evenodd">
        <g id="首页-MI部门-具体问题-答案" transform="translate(-31.000000, -147.000000)" fill="#E6A23C">
            <g id="小跑" transform="translate(0.000000, 128.000000)">
                <g id="icon_laba">
                    <path d="M54.2447749,31.7552787 L49.7468489,31.7552787 C49.3200609,31.7552787 48.9917841,31.427447 48.9917841,31.0013299 C48.9917841,30.5750127 49.3200609,30.2472211 49.7468489,30.2472211 L54.2447749,30.2472211 C54.6717231,30.2472211 55,30.5750127 55,31.0013299 C55,31.427447 54.6717231,31.7552787 54.2447749,31.7552787 Z M50.2722281,26.2805463 C50.1408933,26.4116869 49.9439513,26.5100124 49.7468489,26.5100124 C49.5499068,26.5100124 49.3529648,26.444382 49.2215899,26.2805463 C48.9260165,25.9854097 48.9260165,25.5264374 49.2215899,25.231461 L52.209266,22.2482011 C52.5046791,21.9530645 52.9643308,21.9530645 53.2599042,22.2482011 C53.5553173,22.5431775 53.5553173,23.0021498 53.2599042,23.2972863 L50.2722281,26.2805463 Z M46.2995211,42.9343296 C46.20105,42.9671848 46.102579,43 46.004108,43 C45.8071659,43 45.6429273,42.9343296 45.5115925,42.803189 L38.190189,36.2465561 L33.9876761,36.2465561 C32.7729595,36.2465561 31,35.4597922 31,33.2632962 L31,28.7391635 C31,27.5262825 31.7879286,25.7559436 33.9876761,25.7559436 L38.190189,25.7559436 L45.4787287,19.1993108 C45.7085346,19.0026598 46.004108,18.9371495 46.2995211,19.0681301 C46.5622307,19.1993108 46.7591728,19.4615921 46.7591728,19.7565685 L46.7591728,42.2458912 C46.7264293,42.5410277 46.5622307,42.803189 46.2995211,42.9343296 Z M45.2488828,21.428622 L38.9781175,27.0673102 C38.8467828,27.1984509 38.6498407,27.2639612 38.4856021,27.2639612 L33.9876761,27.2639612 C32.5431537,27.2639612 32.4773861,28.5096974 32.4773861,28.7720187 L32.4773861,33.2632962 C32.4773861,34.6730283 33.7249664,34.7713538 33.9876761,34.7713538 L38.4856021,34.7713538 C38.6825441,34.7713538 38.8467828,34.8368641 38.9781175,34.9680047 L45.2488828,40.5740378 L45.2488828,21.428622 Z M50.2722281,35.7221135 L53.2599042,38.7381887 C53.5553173,39.0331651 53.5553173,39.4921374 53.2599042,39.7871139 C53.1285694,39.9182545 52.9316274,40.01658 52.734525,40.01658 C52.5375829,40.01658 52.3406008,39.9510697 52.209266,39.7871139 L49.2215899,36.8038539 C48.9260165,36.5088775 48.9260165,36.0499052 49.2215899,35.7547687 C49.517003,35.426977 49.9766547,35.426977 50.2722281,35.7221135 Z"></path>
                </g>
            </g>
        </g>
    </g>
</svg>