<?xml version="1.0" encoding="UTF-8"?>
<svg width="110px" height="118px" viewBox="0 0 110 118" version="1.1" xmlns="http://www.w3.org/2000/svg" xmlns:xlink="http://www.w3.org/1999/xlink">
    <!-- Generator: Sketch 51.3 (57544) - http://www.bohemiancoding.com/sketch -->
    <title>PDF</title>
    <desc>Created with Sketch.</desc>
    <defs></defs>
    <g id="组件" stroke="none" stroke-width="1" fill="none" fill-rule="evenodd">
        <g id="doc" transform="translate(-94.000000, -80.000000)" fill="#FF8B6F" fill-rule="nonzero">
            <g id="PDF" transform="translate(94.000000, 80.000000)">
                <path d="M100.294118,47.2 L110,47.2 L110,101.142857 L100.294118,101.142857 L100.294118,114.628571 C100.294118,115.52273 99.9532572,116.380266 99.3465219,117.012531 C98.7397866,117.644797 97.9168768,118 97.0588235,118 L12.9411765,118 C11.1543729,118 9.70588239,116.49056 9.70588239,114.628571 L9.70588239,101.142857 L0,101.142857 L0,47.2 L9.70588239,47.2 L9.70588239,3.37142859 C9.70588239,1.50943999 11.1543729,-1.14013919e-16 12.9411765,0 L76.065,0 L100.294118,28.6706286 L100.294118,47.2 Z M97.0588235,47.2 L97.0588235,33.7142858 L77.6470588,33.7142858 C74.0734516,33.7142858 71.1764705,30.6954058 71.1764705,26.9714286 L71.1764705,3.37142859 L16.1764707,3.37142859 C14.389667,3.37142859 12.9411765,4.88086858 12.9411765,6.74285718 L12.9411765,47.2 L97.0588235,47.2 Z M97.0588235,101.142857 L12.9411765,101.142857 L12.9411765,111.257143 C12.9411765,113.119131 14.389667,114.628571 16.1764707,114.628571 L93.8235293,114.628571 C95.610333,114.628571 97.0588235,113.119131 97.0588235,111.257143 L97.0588235,101.142857 Z M74.4117647,3.37142859 L74.4117647,26.9714286 C74.4117647,27.865587 74.752625,28.7231231 75.3593604,29.3553886 C75.9660957,29.9876541 76.7890055,30.3428572 77.6470588,30.3428572 L97.0588235,30.3428572 L74.4117647,3.37142859 Z M19.4117648,60.8745142 L19.4117648,89.8350858 L22.5629412,89.8350858 L22.5629412,77.9878858 L32.5664706,77.9878858 C37.1013781,77.9878858 40.7776471,74.1569271 40.7776471,69.4312 C40.7776471,64.7054729 37.1013781,60.8745142 32.5664706,60.8745142 L19.4117648,60.8745142 Z M22.7538235,63.5716572 L31.8352941,63.5716572 C34.8398044,63.5716572 37.2754412,66.1097805 37.2754412,69.2407143 C37.2754412,72.3716481 34.8398044,74.9097714 31.8352941,74.9097714 L22.7538235,74.9097714 L22.7538235,63.5716572 Z M44.3105882,60.6857142 L44.3105882,89.7676572 L54.5438235,89.7676572 C57.9760369,89.7676572 61.2676758,88.3468449 63.6946172,85.8177829 C66.1215585,83.2887209 67.485,79.8585766 67.485,76.2819428 L67.485,74.1714286 C67.485,70.5947948 66.1215585,67.1646506 63.6946172,64.6355885 C61.2676758,62.1065265 57.9760369,60.6857142 54.5438235,60.6857142 L44.3105882,60.6857142 Z M47.5685294,63.8009142 L56.1161764,63.8009142 C58.2613098,63.8009142 60.3185841,64.6889219 61.8354225,66.2695857 C63.3522608,67.8502495 64.2044117,69.9940896 64.2044117,72.2294858 L64.2044117,78.2238858 C64.2044117,80.4592819 63.3522608,82.603122 61.8354224,84.1837858 C60.3185841,85.7644495 58.2613098,86.6524572 56.1161764,86.6524572 L47.5685294,86.6524572 L47.5685294,63.8009142 Z M71.7879411,60.7733714 L71.7879411,89.7238286 L75.0297058,89.7238286 L75.0297058,76.3021714 L90.0220587,76.3021714 L90.0220587,73.4634286 L75.0297058,73.4634286 L75.0297058,63.6862858 L90.0220587,63.6862858 L90.0220587,60.7733714 L71.7911764,60.7733714 L71.7879411,60.7733714 Z" id="Shape"></path>
            </g>
        </g>
    </g>
</svg>