<?xml version="1.0" encoding="UTF-8"?>
<svg width="48px" height="48px" viewBox="0 0 48 48" version="1.1" xmlns="http://www.w3.org/2000/svg" xmlns:xlink="http://www.w3.org/1999/xlink">
    <!-- Generator: Sketch 52.6 (67491) - http://www.bohemiancoding.com/sketch -->
    <title>icon_send</title>
    <desc>Created with Sketch.</desc>
    <g id="icon_send" stroke="none" stroke-width="1" fill="none" fill-rule="evenodd">
        <g>
            <circle id="椭圆形" fill="#1989FA" fill-rule="nonzero" cx="24" cy="24" r="24"></circle>
            <path d="M34.8852028,11.0912672 L31.1867882,33.3737639 C31.141768,33.6507109 30.9722599,33.8916861 30.726808,34.0276038 C30.4813879,34.1635215 30.1872012,34.179269 29.928637,34.0704967 L23.3826186,31.3858609 L19.8852707,35.6666483 C19.7175722,35.8859072 19.4539281,36.009919 19.1780924,35.9993783 C19.0689709,36.0028707 18.9603257,35.9833768 18.8592367,35.94223 C18.6803944,35.8773667 18.5263797,35.7579268 18.4189727,35.6008008 C18.3094702,35.4457702 18.251306,35.2603558 18.2526712,35.0704965 L18.2526712,30.008111 L30.7379837,14.6457952 L15.2908344,28.0634819 L9.58194315,25.7134493 C9.22663957,25.5782618 9.0342721,25.3130938 9.00474549,24.9162307 C8.96756736,24.5626733 9.15136259,24.2226093 9.46748784,24.0600224 L33.5126598,10.1328588 C33.8166252,9.94557116 34.2029476,9.95709606 34.4952611,10.1623536 C34.8019886,10.3652618 34.955019,10.731614 34.8852028,11.0912672 Z" id="Fill-1" fill="#FFFFFF"></path>
        </g>
    </g>
</svg>