<?xml version="1.0" encoding="UTF-8"?>
<svg width="150px" height="150px" viewBox="0 0 150 150" version="1.1" xmlns="http://www.w3.org/2000/svg" xmlns:xlink="http://www.w3.org/1999/xlink">
    <!-- Generator: Sketch 52.1 (67048) - http://www.bohemiancoding.com/sketch -->
    <title>icon_xitong</title>
    <desc>Created with Sketch.</desc>
    <defs>
        <polygon id="path-1" points="4.96485821e-16 0 150 0 150 150 4.96485821e-16 150"></polygon>
    </defs>
    <g id="icon_xitong" stroke="none" stroke-width="1" fill="none" fill-rule="evenodd">
        <g id="分组-6">
            <g id="xitong">
                <mask id="mask-2" fill="white">
                    <use xlink:href="#path-1"></use>
                </mask>
                <g id="Clip-2"></g>
                <path d="M92.9711217,61.4598693 C89.4469244,61.4598693 86.5907122,64.2802825 86.5794832,67.7713968 C86.5794832,71.251565 89.4356954,74.0719782 92.9711217,74.0830665 C96.495463,74.0830665 99.3516752,71.2626533 99.3516752,67.7713968 C99.3516752,64.2913708 96.495463,61.4709576 92.9711217,61.4598693 Z M92.9711217,80.1792248 C86.037897,80.1675678 80.4065234,74.6177225 80.4065234,67.7713968 C80.4065234,60.9250712 86.0497019,55.363711 92.9711217,55.363711 C99.8931174,55.363711 105.536296,60.9361595 105.536296,67.7713968 C105.536296,74.6177225 99.9043465,80.1792248 92.9711217,80.1792248 Z M100.583705,88.7541908 C100.618544,88.7763674 100.699018,88.7991127 100.779925,88.7991127 L100.791298,88.7991127 L106.872554,85.4784457 C106.722401,85.1374089 106.054272,83.51098 106.054272,81.805085 C106.054272,76.7218019 110.085217,72.5365305 115.222368,72.2638716 C115.290894,71.8656872 115.694132,69.6139057 115.694132,67.9307559 C115.694132,66.2360913 115.290894,63.9959667 115.222368,63.5977823 C110.085217,63.3245548 106.066077,59.139852 106.054272,54.0560003 C106.054272,52.3501052 106.734206,50.7124459 106.872554,50.3715512 L100.894663,47.0958062 L100.871629,47.0958062 C100.791298,47.0958062 100.710823,47.1185514 100.641577,47.1529537 C99.9623633,47.8237969 99.2133274,48.4379191 98.4304604,48.9838056 C96.5875989,50.268771 94.8482463,50.9174377 93.2478173,50.9174377 C91.6355834,50.9174377 89.8850017,50.2576827 88.0303353,48.949972 C87.2356634,48.3924286 86.4872034,47.7672181 85.8078452,47.0730609 C85.7387433,47.0390852 85.6576925,47.0163399 85.5773616,47.0163399 L85.5543276,47.0163399 L79.3583338,50.3826395 C79.5079107,50.7235342 80.1758958,52.3501052 80.1758958,54.0560003 C80.1640909,59.139852 76.1449511,63.3245548 71.00852,63.5977823 C70.9392741,63.9959667 70.5360357,66.2477482 70.5360357,67.9307559 C70.5360357,69.624994 70.9274692,71.8656872 71.00852,72.2749599 C76.1449511,72.5481874 80.1640909,76.7328902 80.1758958,81.8167419 C80.1758958,83.522637 79.4966816,85.1602963 79.3583338,85.4901027 L85.2201911,88.7314455 L85.231996,88.7314455 C85.3237,88.7314455 85.3929458,88.6970433 85.4277847,88.6858128 C86.1189478,87.9689104 86.8674078,87.3209546 87.6731648,86.7412346 C89.5508652,85.3762342 91.3358539,84.693734 92.9829267,84.693734 C94.6413724,84.693734 96.4492511,85.3989794 98.3381805,86.7861565 C99.5933879,87.707482 100.468967,88.6403223 100.583705,88.7541908 Z M102.507473,97.8633862 C101.332741,97.8633862 100.204076,97.3858778 99.466845,96.5895091 C98.4647234,95.5093932 95.2975526,92.6891221 92.7062311,92.6891221 C90.1267145,92.6891221 86.9134757,95.5206236 85.991829,96.5100428 C85.2551739,97.2947545 84.1265094,97.772263 82.974811,97.772263 C82.4219957,97.772263 81.9034435,97.6701936 81.4311031,97.4652019 L81.3506282,97.4313683 L73.4614937,93.0755073 L73.3810188,93.0189285 C71.9413957,91.994965 71.4116144,90.1186225 72.1140065,88.5037085 C72.1140065,88.4920516 72.8394326,86.8433039 72.8394326,85.3424006 C72.8394326,80.7816901 69.0964126,77.097241 64.4783897,77.085584 L64.1443971,77.085584 C62.8313169,77.085584 61.7487203,75.9255754 61.4034987,74.140214 C61.3686598,73.9919433 60.7235647,70.5918101 60.7235647,67.9190989 C60.7235647,65.2352995 61.3686598,61.8463967 61.3916938,61.6986946 C61.7369154,59.8900194 62.8313169,58.7189224 64.1786601,58.752756 L64.4553557,58.752756 C69.0733786,58.7416676 72.8051696,55.0566499 72.8163986,50.496508 C72.8163986,48.9948939 72.0909725,47.3573768 72.0909725,47.3346315 C71.3885804,45.7197175 71.9183617,43.843375 73.3692139,42.8310684 L73.4502647,42.7743474 L81.7769006,38.2592696 L81.8686046,38.2252939 C82.3409449,38.0321012 82.8476922,37.9293211 83.3892784,37.9293211 C84.5409769,37.9293211 85.6808705,38.3847951 86.4181014,39.1577077 C87.4084182,40.1811026 90.518148,42.8199801 93.0291386,42.8199801 C95.5281803,42.8199801 98.6261052,40.2267353 99.6051928,39.2260856 C100.341848,38.4752075 101.459283,38.0204443 102.610982,38.0204443 C103.163797,38.0204443 103.682349,38.1232245 104.165919,38.3275054 L104.246394,38.3619076 L112.285105,42.7743474 L112.366156,42.8310684 C113.805779,43.8206298 114.346789,45.7653502 113.632592,47.3462884 C113.632592,47.3573768 112.907166,48.9948939 112.907166,50.496508 C112.907166,55.0566499 116.650186,58.7416676 121.268785,58.752756 L121.544905,58.752756 C122.892248,58.7189224 123.986649,59.8900194 124.331871,61.6986946 C124.354905,61.8463967 125,65.2465299 125,67.9190989 C125,70.6028984 124.354905,74.0036002 124.320642,74.140214 C123.974844,75.9483206 122.881019,77.1194176 121.533676,77.085584 L121.25698,77.085584 C116.638957,77.097241 112.907166,80.7816901 112.895937,85.3424006 C112.895937,86.8433039 113.621363,88.4920516 113.621363,88.5037085 C114.323755,90.1186225 113.793974,91.994965 112.343122,93.0189285 L112.262071,93.0755073 L104.084868,97.5335799 L104.004537,97.5679821 C103.544002,97.7611747 103.025449,97.8633862 102.507473,97.8633862 Z M121.395328,38.6234782 C121.395328,40.0906901 120.600656,41.4438914 119.321839,42.1713135 C118.043597,42.8993043 116.454397,42.8993043 115.176156,42.1713135 C113.897483,41.4438914 113.102811,40.0906901 113.102811,38.6234782 L113.102811,22.2464589 C113.102811,21.1208524 112.18174,20.1885808 111.030042,20.1885808 L36.3652862,20.1885808 C35.2366217,20.1885808 34.2925169,21.1091955 34.2925169,22.2464589 L34.2925169,71.3881787 C34.2925169,72.5137852 35.2135877,73.4460569 36.3652862,73.4460569 L55.0343183,73.4460569 C56.5200093,73.4460569 57.8905305,74.2313372 58.6277615,75.4935574 C59.3649924,76.7557776 59.3649924,78.325059 58.6277615,79.5877057 C57.8905305,80.8499259 56.5200093,81.6346376 55.0343183,81.6346376 L30.1574875,81.6346376 C29.051857,81.6346376 27.9924383,81.2026197 27.2208004,80.4406532 C26.4375015,79.6671719 26,78.6321201 26,77.5403472 L26,16.0942904 C26,13.8308519 27.8658955,12 30.1574875,12 L117.23784,12 C118.343327,12 119.402889,12.4320179 120.174383,13.1938422 C120.957826,13.9674657 121.395328,15.0025175 121.395328,16.0942904 L121.395328,38.6234782 Z M44.6690321,93.9057096 C44.6690321,91.6422712 46.5349276,89.8114192 48.8383245,89.8114192 L65.3883754,89.8114192 C66.8740664,89.8114192 68.2444436,90.596131 68.9812427,91.8589198 C69.7184737,93.12114 69.7184737,94.6904214 68.9812427,95.9526416 C68.2444436,97.2152883 66.8740664,98 65.3883754,98 L48.8383245,98 C47.732694,98 46.6732754,97.5790704 45.8898325,96.8055891 C45.1065336,96.0436226 44.6690321,94.9974825 44.6690321,93.9057096 Z" id="Fill-1" fill="#1880FE" mask="url(#mask-2)"></path>
                <text id="系统入口" mask="url(#mask-2)" font-family="PingFangSC-Medium, PingFang SC" font-size="24" font-weight="400" letter-spacing="0.2545455" fill="#1880FE">
                    <tspan x="24.490909" y="132">系统入口</tspan>
                </text>
            </g>
        </g>
    </g>
</svg>