<?xml version="1.0" encoding="UTF-8"?>
<svg width="14px" height="22px" viewBox="0 0 14 22" version="1.1" xmlns="http://www.w3.org/2000/svg" xmlns:xlink="http://www.w3.org/1999/xlink">
    <!-- Generator: Sketch 52.1 (67048) - http://www.bohemiancoding.com/sketch -->
    <title>icon_chevron-left</title>
    <desc>Created with Sketch.</desc>
    <g id="当前最新版本" stroke="none" stroke-width="1" fill="none" fill-rule="evenodd" opacity="0.4">
        <g id="首页-系统流程-copy" transform="translate(-590.000000, -549.000000)" fill="#909399" stroke="#808FA3" stroke-width="0.3">
            <g id="分组-17" transform="translate(20.000000, 470.000000)">
                <g id="热门问题-copy">
                    <g id="猜你想问-2">
                        <g id="猜你想问">
                            <g id="条目小" transform="translate(0.000000, 60.000000)">
                                <g id="分组">
                                    <g>
                                        <g id="icon_chevron-left" transform="translate(569.800000, 19.000000)">
                                            <path d="M1.3545905,2.99213065 C0.762803303,2.43780085 0.744217021,1.52103856 1.31332895,0.944260396 C1.60513357,0.64881094 1.99507375,0.5 2.38538565,0.5 C2.75636782,0.5 3.12735,0.633966053 3.41580908,0.904070581 L13.0806753,9.9558309 C13.3721082,10.228832 13.5367826,10.6061094 13.5367826,11.000042 C13.5367826,11.3936125 13.3721082,11.7708899 13.0806753,12.043891 L3.41580908,21.0956513 C2.82402189,21.6499811 1.88244088,21.6322396 1.31332895,21.0554615 C0.744217021,20.4786833 0.762803303,19.561921 1.3545905,19.0075912 L9.90465157,11.000042 L1.3545905,2.99213065 Z" id="chevron-left"></path>
                                        </g>
                                    </g>
                                </g>
                            </g>
                        </g>
                    </g>
                </g>
            </g>
        </g>
    </g>
</svg>